<svg width="24" height="24" viewBox="0 0 24 24" fill="none" xmlns="http://www.w3.org/2000/svg">
<path d="M17.1072 6.80371C17.5437 7.24023 17.5437 7.94824 17.1072 8.38477L13.7537 11.7383L17.1072 15.0918C17.3264 15.3115 17.4355 15.5986 17.4346 15.8857C17.4336 16.1709 17.3245 16.4561 17.1072 16.6729L16.8691 16.9111C16.4324 17.3477 15.7246 17.3477 15.2878 16.9111L11.9346 13.5576L8.5813 16.9111C8.14453 17.3477 7.43677 17.3477 7 16.9111L6.76196 16.6729C6.32544 16.2363 6.32544 15.5283 6.76196 15.0918L10.1155 11.7383L6.76196 8.38477C6.32544 7.94824 6.32544 7.24023 6.76196 6.80371L7 6.56543C7.43677 6.12891 8.14453 6.12891 8.5813 6.56543L11.9346 9.91895L15.2878 6.56543C15.7246 6.12891 16.4324 6.12891 16.8691 6.56543L17.1072 6.80371Z" fill="#4B1113"/>
<path fill-rule="evenodd" clip-rule="evenodd" d="M24 12C24 18.627 18.6274 24 12 24C5.37256 24 0 18.627 0 12C0 5.37305 5.37256 0 12 0C18.6274 0 24 5.37305 24 12ZM22 12C22 17.5225 17.5229 22 12 22C6.47705 22 2 17.5225 2 12C2 6.47754 6.47705 2 12 2C17.5229 2 22 6.47754 22 12Z" fill="#4B1113"/>
</svg>
