<svg width="24" height="24" viewBox="0 0 24 24" fill="none" xmlns="http://www.w3.org/2000/svg">
<path d="M12.125 9.53861C12.9189 9.53861 13.5625 10.1187 13.5625 10.8326V16.6451C13.5625 17.3599 12.9189 17.939 12.125 17.939H12C11.2061 17.939 10.5625 17.3599 10.5625 16.6451V10.8326C10.5625 10.1187 11.2061 9.53861 12 9.53861H12.125Z" fill="#193C47"/>
<path d="M10.5625 7.34961C10.5625 6.60449 11.2341 6 12.0625 6C12.8909 6 13.5625 6.60449 13.5625 7.34961C13.5625 8.0957 12.8909 8.7002 12.0625 8.7002C11.2341 8.7002 10.5625 8.0957 10.5625 7.34961Z" fill="#193C47"/>
<path fill-rule="evenodd" clip-rule="evenodd" d="M24 12C24 18.627 18.6274 24 12 24C5.37256 24 0 18.627 0 12C0 5.37305 5.37256 0 12 0C18.6274 0 24 5.37305 24 12ZM22 12C22 17.5225 17.5229 22 12 22C6.47705 22 2 17.5225 2 12C2 6.47754 6.47705 2 12 2C17.5229 2 22 6.47754 22 12Z" fill="#193C47"/>
</svg>
