<svg width="24" height="24" viewBox="0 0 24 24" fill="none" xmlns="http://www.w3.org/2000/svg">
<path d="M17.7566 8.8418C18.1536 8.33887 18.0544 7.62109 17.5352 7.23633C17.0137 6.85059 16.2668 6.94727 15.8687 7.45117L10.8049 13.8623L8.02856 11.1748C7.56445 10.7246 6.81079 10.7246 6.34668 11.1748C5.88452 11.6221 5.88452 12.3467 6.34668 12.7939L10.0854 16.4141C10.3271 16.6475 10.6616 16.7695 11.0027 16.7471C11.1924 16.7354 11.374 16.6797 11.5337 16.5869C11.6609 16.5127 11.7742 16.416 11.8665 16.2988L17.7566 8.8418Z" fill="#013100"/>
<path fill-rule="evenodd" clip-rule="evenodd" d="M24 12C24 18.627 18.6274 24 12 24C5.37256 24 0 18.627 0 12C0 5.37305 5.37256 0 12 0C18.6274 0 24 5.37305 24 12ZM22 12C22 17.5225 17.5229 22 12 22C6.47705 22 2 17.5225 2 12C2 6.47754 6.47705 2 12 2C17.5229 2 22 6.47754 22 12Z" fill="#013100"/>
</svg>
