<svg width="24" height="22" viewBox="0 0 24 22" fill="none" xmlns="http://www.w3.org/2000/svg">
<path d="M12.124 9.90582C12.8351 9.90582 13.4116 10.4919 13.4116 11.2148V17.0957C13.4116 17.8187 12.8351 18.4047 12.124 18.4047H12.012C11.3009 18.4047 10.7244 17.8187 10.7244 17.0957V11.2148C10.7244 10.4919 11.3009 9.90582 12.012 9.90582H12.124Z" fill="#4D3800"/>
<path d="M10.6564 7.64149C10.6564 6.88712 11.2579 6.27561 12 6.27561C12.7421 6.27561 13.3436 6.88712 13.3436 7.64149C13.3436 8.39585 12.7421 9.00741 12 9.00741C11.2579 9.00741 10.6564 8.39585 10.6564 7.64149Z" fill="#4D3800"/>
<path fill-rule="evenodd" clip-rule="evenodd" d="M9.67281 1.375C10.7071 -0.458333 13.2929 -0.458333 14.3272 1.375L23.636 17.875C24.6703 19.7083 23.3774 22 21.3088 22H2.69122C0.622604 22 -0.670281 19.7083 0.364027 17.875L9.67281 1.375ZM13.1636 2.0625L22.4724 18.5625C22.9895 19.4792 22.3431 20.625 21.3088 20.625H2.69122C1.65691 20.625 1.01047 19.4792 1.52762 18.5625L10.8364 2.0625C11.3536 1.14583 12.6464 1.14583 13.1636 2.0625Z" fill="#4D3800"/>
</svg>
